/* XPM */
static char *result[] = {
/* columns rows colors chars-per-pixel */
"32 32 15 1 ",
"  c none",
". c #6B0D37",
"X c #352442",
"o c #AD0B02",
"O c #BA0D03",
"+ c #C71105",
"@ c #BC5E00",
"# c #E86D51",
"$ c #F77B5E",
"% c #EF9F14",
"& c #FFC902",
"* c #FB8B70",
"= c #857F88",
"- c white",
"; c none",
/* pixels */
";;;;;;;;;;;;;;;;;;;;;;;;;;;;;;;;",
";;;;;;;;;;;;;;;;;;;;;;;;;;;;;;;;",
";;;;;;;  ;;;;;;;;;;    ;;;;;;;;;",
";;;;;; &&    ; ;;  &&&& ;;;;;;;;",
";;;;; &&%&&&& .  &&&&%&& ;;;;;;;",
";;;; %%%%%%&&@. @&&%%%%%% ;;;;;;",
";;;;;    %%%@ .          ;;;;;;;",
";;;;;;;;;     . ;;;;;;;;;;;;;;;;",
";;;;;;;;;;;;; . ;;;;;;;;;;;;;;;;",
";;;;;;;;;;;;  ..     ;;;;;;;;;;;",
";;;;;;;;;   O . OOooo  ;;;;;;;;;",
";;;;;;;; OOO+O O++Ooooo ;;;;;;;;",
";;;;;;; *#O++++++++Ooooo ;;;;;;;",
";;;;;; *#$$O+++++++Ooooo ;;;;;;;",
";;;;;; *#$#O++++oo++Ooooo ;;;;;;",
";;;;;; *#$$O++++oo++Ooooo ;;;;;;",
";;;;; *#$$$O+++++++++Ooooo ;;;;;",
";;;;; #$$$O+++++++o+++OOOO ;;;;;",
";;;;; #$#O++++++++++++++++ ;;;;;",
";;;; #$$$OO  O+++++++O  O+ ;;;;;",
";;; #$$#OO   -O+++++O   -O ;;;;;",
";;; *$OO+O    O+++++O    O ;;;;;",
";;; OO++++OOOOO=X=X=OOOOO+ ;;;;;",
";;; O++++++++O - - - O+++ ;;;;;;",
";;; O++++++++O       O+++ ;;;;;;",
";;;; O+++++++O       O++ ;;;;;;;",
";;;; O++OOO++O       O++ ;;;;;;;",
";;;;;  OoooO+OX-X-X-XO+ ;;;;;;;;",
";;;;;;;   ooO+OOOOOOO  ;;;;;;;;;",
";;;;;;;;;;           ;;;;;;;;;;;",
";;;;;;;;;;;;;;;;;;;;;;;;;;;;;;;;",
";;;;;;;;;;;;;;;;;;;;;;;;;;;;;;;;"
};
