/* XPM */
static char *_fe49bc0e101450eee932de2f5dd7587h1jXnSoqxlQp3huX[] = {
/* columns rows colors chars-per-pixel */
"32 32 6 1 ",
". c #5E2C29",
"X c #2A304E",
"o c #667291",
"O c #94A0BA",
"+ c #FCFEFE",
"% c none",
/* pixels */
"%%%%%%%%%%%%%%%%%%%%%%%%%%%%%%%%",
"%%%%%%%%%%%%%%%%%%%%%%%%%%%%%%%%",
"%%%%%%%%%%%XXXXXX%%%%%%%%%%%%%%%",
"%%%%%%%%%XX++++OOXX%%%%%%%%%%%%%",
"%%%%%%%XX++++++++OOXX%%%%%%%%%%%",
"%%%%%%X+++++++++++OOOX%%%%%%%%%%",
"%%%%%X+++++++++++++OOOX%%%%%%%%%",
"%%%%X++++++++++++++OOOOX%%%%%%%%",
"%%%X++++++++++++++++OOOX%%%%%%%&",
"%%%X++++++++++++++++OoOX%%%%%%%%",
"%%%X++o+++++++++++++OoOOX%%%%%%%",
"%%%XXXo+++++++++++++OoXXX%%%%%%%",
"%%%%%XO+++++++++++++OOX%%%%%%%%%",
"%%%%%X++++++++++++++OOX%%%%%%%%%",
"%%%%%XX+++++++++++++OX%%%%%%%%%%",
"%%%%XOX++++++++++++OOX%%%%%%%%%%",
"%%%%XOOX++++++++++OOX%%%%%%%%%%%",
"%%%%XOOX..++++++OO..X%%%%%%%%%%%",
"%%%%XOOOOO........ooXX%%%%%%%%%%",
"%%%%%XOOO+OOOOOOOOooooX%%%%%%%%%",
"%%%%%%XXX++++++++OooooX%%%%%%%%%",
"%%%%%%% X++++++++OoXooX%%%%%%%%%",
"%%%%%%% X++++++++OoXXX%%%%%%%%%%",
"%%%%%%% X++++++++OOoX%%%%%%%%%%%",
"%%%%%%%%%X++++++OOOoX%%%%%%%%%%%",
"%%%%%%%%%X+++++OooooX%%%%%%%%%%%",
"%%%%%%%%%X++++OXXoooX%%%%%%%%%%%",
"%%%%%%%%%X+++OX%%XXXX%%%%%%%%%%%",
"%%%%%%%%%X+++X%%%%%%%%%%%%%%%%%%",
"%%%%%%%%%X+++X%%%%%%%%%%%%%%%%%%",
"%%%%%%%%%XXXX%%%%%%%%%%%%%%%%%%%",
"%%%%%%%%%%%%%%%%%%%%%%%%%%%%%%%%"
};
