/* XPM */
static char *result[] = {
/* columns rows colors chars-per-pixel */
"32 32 6 1 ",
"  c #5E2C29",
". c #2A304E",
"X c #667291",
"o c #94A0BA",
"O c #FCFEFE",
"+ c none",
/* pixels */
"++++++++++++++++++++++++++++++++",
"++++++++++++++++++++++++++++++++",
"++++++++++++......++++++++++++++",
"++++++++++..OOOOoo..++++++++++++",
"++++++++..OOOOOOOOoo..++++++++++",
"+++++++.OOOOOOOOOOOooo.+++++++++",
"++++++.OOOOOOOOOOOOOooo.++++++++",
"+++++.OOOOOOOOOOOOOOoooo.+++++++",
"+++++.OOOOOOOOOOOOOOOooo.+++++++",
"++++.OOOOOOOOOOOOOOOOoXoo.++++++",
"++++.OOXOOOOOOOOOOOOOoXoo.++++++",
"++++...XOOOOOOOOOOOOOoX...++++++",
"++++++.oOOOOOOOOOOOOOoo.++++++++",
"++++++.OOOOOOOOOOOOOOoo.++++++++",
"+++++++.OOOOOOOOOOOOOo.+++++++++",
"+++++++.OOOOOOOOOOOOoo.+++++++++",
"++++++++.OOOOOOOOOOoo.++++++++++",
"++++++...  OOOOOOoo  .++++++++++",
"+++++.ooooo        XX..+++++++++",
"+++++.ooooOooooooooX.XX.++++++++",
"+++++.ooooOOOOOOOOoXXXX.++++++++",
"++++++....OOOOOOOOoXXXX.++++++++",
"+++++++++.OOOOOOOOoX...+++++++++",
"+++++++++.OOOOOOOOoX.+++++++++++",
"+++++++++.OOOOOOOOoX.+++++++++++",
"+++++++++.OOOOOOOOoX.+++++++++++",
"+++++++++.OOOOOooooX.+++++++++++",
"+++++++++.OOOo..oooX.+++++++++++",
"+++++++++.OOO.++.ooX.+++++++++++",
"+++++++++.OOO.++.ooX.+++++++++++",
"+++++++++....++++....+++++++++++",
"++++++++++++++++++++++++++++++++"
};
