/* XPM */
static char *result[] = {
/* columns rows colors chars-per-pixel */
"32 32 10 1 ",
"  c #1C121B",
". c #1C1A30",
"X c #5E2C29",
"o c #2A304E",
"O c #FC5003",
"+ c #FDA216",
"@ c #667291",
"# c #94A0BA",
"$ c #FCFEFE",
"% c none",
/* pixels */
"%%%%%%%%%%%%%%%%%%%%%%%%%%%%%%%%",
"%%%%%%%%%%%%%%%%%%%%%%%%%%%%%%%%",
"%%%%%%%%%%%%%%%%%%%%%%%%%%%%%%%%",
"%%%%%%%%%%%%%%%%%%%%%%%%%%%%%%%%",
"%%%%%%%%%%%%%%%%%%%%%%%%%%%%%%%%",
"%%%%%%%%%%%%%%oooooo%%%%%%%%%%%%",
"%%%%%%%%%%%%oo#$$$$$oo%%%%%%%%%%",
"%%%%%%%%%%%o##$$$$$$$$oo%%%%%%%%",
"%%%%%%%%%%o#@@@@@@@$$$$$o%%%%%%%",
"%%%%%%%%%%o@@@@@@@@@$$$$$o%%%%%%",
"%%%%%%%%%oo@@@@oo@@@$$$$$$o%%%%%",
"%%%%%%%%%o$@@@@$$o@@@$$$$$o%%%%%",
"%%%%%%%%%o$@@@@$$.@@@$$$$$$o%%%%",
"%%%%%%%%o@.@  @...@@@$$$$$$o%%%%",
"%%%%%%%%o@@   @@@@@@@$$$@$$o%%%%",
"%%%%%%%%o@@   @@@@@@@$$$@oo%%%%%",
"%%%%%%%%o@@ oo@@@@@@$$$$#o%%%%%%",
"%%%%%%%%%o@@@@@@@@@@$$$$o%%%%%%%",
"%%%%%%%%%o@@##$@@@@$$$$$o%%%%%%%",
"%%%%%%%%%%o###$$$$$$$$$o%%%%%%%%",
"%%%%%%%%%%%o###$$$$$XXXo%%%%%%%%",
"%%%%%%%%%%%oX####XXX#$o%%%%%%%%%",
"%%%%%%%%%%%o@XXXX#@$$$o%%%%%%%%%",
"%%%%%%%%%%o@#++O$$@$$$$o%%%%%%%%",
"%%%%%%%%%%o@#++O$$$@$$$o%%%%%%%%",
"%%%%%%%%%%o@#++O$$$@$$$o%%%%%%%%",
"%%%%%%%%%%%o@###$$$@$$$o%%%%%%%%",
"%%%%%%%%%%%o@@###$$$@@o%%%%%%%%%",
"%%%%%%%%%%o@@@@oo$$$$$o%%%%%%%%%",
"%%%%%%%%%%o@@@@oo$$$$$o%%%%%%%%%",
"%%%%%%%%%%o@@@@o%o$$$$o%%%%%%%%%",
"%%%%%%%%%%ooooo%%o$$$$o%%%%%%%%%"
};
