/* XPM */
static char *_83c34bbcb40438efaf9d6820916db32SiUkv8A0sFkXUMkE[] = {
/* columns rows colors chars-per-pixel */
"32 32 10 1 ",
"  c none",
". c none",
"X c none",
"o c none",
"O c none",
"+ c none",
"O c none",
"# c none",
"$ c none",
"% c none",
/* pixels */
"OOOOOO.OOOOOOOOOOOO.OOOOOOOO.OOO",
"OOOOOO.OOOOOOOOOOOO.OOOOOOOO.OOO",
"OOOOOO.OOOOOOOOOOOO.OOOOOOOO.OOO",
"OOOOOO.OOOOOOOOOOOO.OOOOOOOO.OOO",
"OOOOOO.OOOOOOOOOOOO.OOOOOOOO.OOO",
"OOOOOO.OOOOOOOOOOOO.OOOOOOOO.OOO",
"OOOOOO.OOOOOOOOOOOO.OOOOOOOO.OOO",
"OOOOOO.OOOOOOOOOOOO.OOOOOOOO.OOO",
"OOOOOO.OOOOOOOOOOOO.OOOOoOOO.OOO",
"OOOOOO.OOOOOOOOOOOO.OOOOOOOO.OOO",
"OOOOOO.OOOOOOOOOOOO.OOOOOOOO.OOO",
"OOOOOO.OOOOOOOOOOOO.OOOOOOOO.OOO",
"OOOOOO.OOOOOOOOOOOO.OOOOOOOO.OOO",
"OOOOOO.OOOOOOOOOOOO.OOOOOOOO.OOO",
"OOOOOOOOOOOOOOOO OOOOOOOOOOOOOOO",
"OOOOOOOOOOOOOOOO OOOOOOOOOOOOOOO",
"OOOOOOOOOOOOOOOO    OOOOOOOOOOOO",
"OOOOOOOOOOOOOOOO    OOOOOOOOOOOO",
"OOOOOOOOOOOOOOO    OOOOOOOOOOOOO",
"OOOOOOOOOOOOOOOO    OOOOOOOOOOOO",
"OOOOOOOOOOOOOOOO    OOOOOOOOOOOO",
"OOOOOOOOOOOOOOOO    OOOOOOOO+OOO",
"OOOOOOOOOOOOOOO    OOOOOOOOOOOOO",
"OOOOOOOOOOOOOOO X  OOOOOOOOOOOOO",
"O###OOOOOOOOOX       OOOOOOOOOOO",
"O#OOOOOOOOO    OO  OOOOOOOOOOOOO",
"OOOOOOOOOOOOOOO    OOOOOOOOOOOOO",
"OOOOOOOOOOOOOOOO    OOOOOOOOOOOO",
"OOOOOOOOOOOOOOO X  OOOOOOOOOO%%O",
"OOOOOOOOOOOOOOOO X  OOOOOOOOO%%%",
"OOOOO##OOOOOOOOO    OOOOOOOO%%%%",
"OOOOO#OOOOOOOOO    OOOOOOOO%%%%O"
};
